<?xml version="1.0" standalone="no"?>
<!DOCTYPE svg PUBLIC "-//W3C//DTD SVG 20010904//EN"
 "http://www.w3.org/TR/2001/REC-SVG-20010904/DTD/svg10.dtd">
<svg version="1.0" xmlns="http://www.w3.org/2000/svg"
 width="1103.000000pt" height="529.000000pt" viewBox="0 0 1103.000000 529.000000"
 preserveAspectRatio="xMidYMid meet">
<metadata>
Created by potrace 1.15, written by Peter Selinger 2001-2017
</metadata>
<g transform="translate(0.000000,529.000000) scale(0.100000,-0.100000)"
fill="#000000" stroke="none">
<path d="M9370 3581 l0 -1709 53 -30 c28 -16 69 -40 90 -52 l37 -22 0 1761 0
1761 -90 0 -90 0 0 -1709z"/>
<path d="M9680 3477 l0 -1813 31 -23 c59 -43 181 -166 257 -256 216 -257 360
-557 427 -890 27 -132 50 -384 42 -447 l-5 -38 299 0 299 0 0 1220 c0 671 -3
1220 -6 1220 -4 0 -45 -22 -93 -49 -134 -75 -146 -80 -161 -71 -11 7 -8 11 13
19 15 6 27 16 27 22 0 7 3 10 6 6 7 -7 84 32 84 42 0 4 6 8 14 8 27 0 116 64
116 84 0 10 -3 19 -6 19 -9 0 -242 -128 -276 -152 l-26 -18 -74 56 c-298 228
-504 552 -594 939 -27 113 -28 134 -29 350 0 204 3 242 23 338 109 508 398
893 863 1151 l67 36 25 -42 26 -43 1 73 0 72 -675 0 -675 0 0 -1813z"/>
<path d="M2946 4613 c-17 -5 -18 -13 -12 -91 3 -48 9 -198 12 -334 4 -137 10
-248 15 -248 20 0 200 130 255 185 75 74 99 135 91 231 -9 112 -94 222 -197
253 -37 11 -127 13 -164 4z"/>
<path d="M2875 4576 c-17 -12 -18 -27 -7 -336 7 -199 15 -327 21 -333 8 -8 11
-7 11 1 0 7 6 12 13 12 9 0 10 67 2 329 -6 182 -13 332 -16 335 -3 3 -14 0
-24 -8z"/>
<path d="M10957 4510 c-225 -206 -347 -488 -347 -800 0 -305 109 -560 332
-779 40 -39 76 -71 80 -71 4 0 8 385 8 855 0 470 -2 855 -4 855 -2 0 -33 -27
-69 -60z"/>
<path d="M7568 1879 c-17 -9 -18 -40 -18 -409 0 -220 3 -400 6 -400 3 0 14 5
25 10 18 10 19 25 19 410 0 220 -3 400 -7 400 -5 0 -16 -5 -25 -11z"/>
<path d="M7452 1820 c-189 -103 -327 -223 -361 -314 -32 -87 -29 -193 8 -273
36 -75 98 -138 171 -172 45 -20 70 -25 137 -26 45 0 87 5 93 11 7 7 9 137 8
407 l-3 396 -53 -29z"/>
<path d="M9370 500 l0 -490 90 0 90 0 0 376 0 375 -32 47 c-32 47 -139 182
-145 182 -2 0 -3 -220 -3 -490z"/>
<path d="M9681 228 l-1 -218 25 0 c25 0 25 1 25 83 0 94 -14 216 -34 297 -13
52 -14 43 -15 -162z"/>
</g>
</svg>
